<?xml version="1.0" encoding="UTF-8"?>
<svg xmlns="http://www.w3.org/2000/svg" xmlns:xlink="http://www.w3.org/1999/xlink" width="112.5" height="13.352608" viewBox="0 0 112.5 13.352608">
<defs>
<clipPath id="clip-0">
<path clip-rule="nonzero" d="M 47 0 L 59 0 L 59 13.351562 L 47 13.351562 Z M 47 0 "/>
</clipPath>
<clipPath id="clip-1">
<path clip-rule="nonzero" d="M 77 0 L 80 0 L 80 13.351562 L 77 13.351562 Z M 77 0 "/>
</clipPath>
<clipPath id="clip-2">
<path clip-rule="nonzero" d="M 84 0 L 97 0 L 97 13.351562 L 84 13.351562 Z M 84 0 "/>
</clipPath>
<clipPath id="clip-3">
<path clip-rule="nonzero" d="M 0 0 L 10 0 L 10 13.351562 L 0 13.351562 Z M 0 0 "/>
</clipPath>
<clipPath id="clip-4">
<path clip-rule="nonzero" d="M 14 0 L 26 0 L 26 13.351562 L 14 13.351562 Z M 14 0 "/>
</clipPath>
<clipPath id="clip-5">
<path clip-rule="nonzero" d="M 62 0 L 74 0 L 74 13.351562 L 62 13.351562 Z M 62 0 "/>
</clipPath>
<clipPath id="clip-6">
<path clip-rule="nonzero" d="M 30 0 L 43 0 L 43 13.351562 L 30 13.351562 Z M 30 0 "/>
</clipPath>
<clipPath id="clip-7">
<path clip-rule="nonzero" d="M 101 0 L 112.5 0 L 112.5 13.351562 L 101 13.351562 Z M 101 0 "/>
</clipPath>
</defs>
<g clip-path="url(#clip-0)">
<path fill-rule="nonzero" fill="rgb(100%, 100%, 100%)" fill-opacity="1" d="M 58.699219 11.449219 C 58.699219 11.957031 58.5 12.4375 58.144531 12.796875 C 57.785156 13.152344 57.300781 13.351562 56.796875 13.351562 L 49.164062 13.351562 C 48.660156 13.351562 48.175781 13.152344 47.820312 12.796875 C 47.460938 12.4375 47.261719 11.957031 47.261719 11.449219 L 47.261719 1.949219 C 47.261719 1.699219 47.3125 1.453125 47.40625 1.222656 C 47.503906 0.992188 47.640625 0.78125 47.820312 0.605469 C 47.996094 0.429688 48.207031 0.289062 48.4375 0.191406 C 48.667969 0.0976562 48.914062 0.046875 49.164062 0.046875 L 56.796875 0.046875 C 57.046875 0.046875 57.292969 0.0976562 57.523438 0.191406 C 57.753906 0.289062 57.964844 0.429688 58.140625 0.605469 C 58.316406 0.78125 58.457031 0.992188 58.554688 1.222656 C 58.648438 1.453125 58.699219 1.699219 58.699219 1.949219 L 58.699219 3.828125 L 56.53125 3.828125 L 56.53125 1.964844 L 49.480469 1.964844 L 49.480469 11.488281 L 56.535156 11.488281 L 56.535156 9.566406 L 58.703125 9.566406 Z M 58.699219 11.449219 "/>
</g>
<g clip-path="url(#clip-1)">
<path fill-rule="nonzero" fill="rgb(100%, 100%, 100%)" fill-opacity="1" d="M 77.730469 0.0507812 L 79.898438 0.0507812 L 79.898438 13.351562 L 77.730469 13.351562 Z M 77.730469 0.0507812 "/>
</g>
<g clip-path="url(#clip-2)">
<path fill-rule="nonzero" fill="rgb(100%, 100%, 100%)" fill-opacity="1" d="M 94.273438 13.351562 L 86.6875 13.351562 C 86.183594 13.351562 85.699219 13.152344 85.339844 12.796875 C 84.984375 12.4375 84.785156 11.957031 84.785156 11.449219 L 84.785156 1.949219 C 84.785156 1.445312 84.984375 0.960938 85.339844 0.605469 C 85.699219 0.25 86.183594 0.046875 86.6875 0.046875 L 94.273438 0.046875 C 94.523438 0.046875 94.769531 0.0976562 95 0.191406 C 95.230469 0.289062 95.441406 0.429688 95.617188 0.605469 C 95.792969 0.78125 95.933594 0.992188 96.027344 1.222656 C 96.125 1.453125 96.175781 1.699219 96.175781 1.949219 L 96.175781 11.449219 C 96.175781 11.957031 95.972656 12.4375 95.617188 12.796875 C 95.261719 13.152344 94.777344 13.351562 94.273438 13.351562 Z M 94.003906 11.488281 L 94.003906 1.964844 L 86.953125 1.964844 L 86.953125 11.488281 Z M 94.003906 11.488281 "/>
</g>
<g clip-path="url(#clip-3)">
<path fill-rule="nonzero" fill="rgb(100%, 100%, 100%)" fill-opacity="1" d="M 7.304688 0.0507812 L 7.304688 11.488281 L 2.167969 11.488281 L 2.167969 9.566406 L 0 9.566406 L 0 11.457031 C 0.0117188 11.953125 0.214844 12.429688 0.570312 12.78125 C 0.921875 13.132812 1.398438 13.335938 1.894531 13.347656 L 7.578125 13.347656 C 7.839844 13.339844 8.097656 13.277344 8.332031 13.160156 C 8.5625 13.042969 8.769531 12.875 8.929688 12.667969 C 9.253906 12.339844 9.445312 11.90625 9.472656 11.445312 L 9.472656 0.0507812 Z M 7.304688 0.0507812 "/>
</g>
<g clip-path="url(#clip-4)">
<path fill-rule="nonzero" fill="rgb(100%, 100%, 100%)" fill-opacity="1" d="M 23.78125 0.0507812 L 23.78125 11.4375 L 16.730469 11.4375 L 16.730469 0.0507812 L 14.5625 0.0507812 L 14.5625 11.449219 C 14.5625 11.953125 14.761719 12.4375 15.117188 12.792969 C 15.472656 13.148438 15.953125 13.351562 16.457031 13.351562 L 25.949219 13.351562 L 25.949219 0.0507812 Z M 23.78125 0.0507812 "/>
</g>
<g clip-path="url(#clip-5)">
<path fill-rule="nonzero" fill="rgb(100%, 100%, 100%)" fill-opacity="1" d="M 72.945312 0.0507812 L 62.664062 0.0507812 L 62.664062 1.964844 L 66.847656 1.964844 L 66.847656 13.351562 L 69.015625 13.351562 L 69.015625 1.964844 L 73.195312 1.964844 L 73.195312 0.0507812 Z M 72.945312 0.0507812 "/>
</g>
<g clip-path="url(#clip-6)">
<path fill-rule="nonzero" fill="rgb(100%, 100%, 100%)" fill-opacity="1" d="M 40.210938 0.0507812 L 40.210938 11.285156 L 39.9375 11.285156 L 34.8125 0 L 30.988281 0 L 30.988281 13.351562 L 33.15625 13.351562 L 33.15625 2.066406 L 33.425781 2.066406 L 38.570312 13.351562 L 42.375 13.351562 L 42.375 0.0507812 Z M 40.210938 0.0507812 "/>
</g>
<g clip-path="url(#clip-7)">
<path fill-rule="nonzero" fill="rgb(100%, 100%, 100%)" fill-opacity="1" d="M 110.332031 0.0507812 L 110.332031 11.285156 L 110.0625 11.285156 L 104.9375 0 L 101.113281 0 L 101.113281 13.351562 L 103.277344 13.351562 L 103.277344 2.066406 L 103.550781 2.066406 L 108.695312 13.351562 L 112.5 13.351562 L 112.5 0.0507812 Z M 110.332031 0.0507812 "/>
</g>
</svg>
