<?xml version="1.0" encoding="UTF-8"?>
<svg xmlns="http://www.w3.org/2000/svg" xmlns:xlink="http://www.w3.org/1999/xlink" width="180.000002" height="180.000002" viewBox="0 0 180.000002 180.000002">
<defs>
<filter id="filter-remove-color" x="0%" y="0%" width="100%" height="100%">
<feColorMatrix color-interpolation-filters="sRGB" values="0 0 0 0 1 0 0 0 0 1 0 0 0 0 1 0 0 0 1 0" />
</filter>
<mask id="mask-0">
<g filter="url(#filter-remove-color)">
<rect x="-18" y="-18" width="216.000002" height="216.000002" fill="rgb(0%, 0%, 0%)" fill-opacity="0.99"/>
</g>
</mask>
<clipPath id="clip-0">
<rect x="0" y="0" width="180" height="180"/>
</clipPath>
<g id="source-5" clip-path="url(#clip-0)">
<path fill-rule="evenodd" fill="rgb(100%, 41.567993%, 6.274414%)" fill-opacity="1" d="M 108.121094 178.796875 C 133.449219 173.359375 155.980469 156.796875 168.472656 134.425781 C 183.089844 108.242188 183.84375 76.925781 170.515625 49.855469 C 165.582031 39.835938 160.320312 32.691406 152.125 24.875 C 140.96875 14.246094 127.390625 6.648438 112.449219 2.675781 C 101.753906 -0.164062 84.824219 -0.851562 74.28125 1.132812 C 39.324219 7.703125 11.21875 33.785156 2.320312 67.902344 C 0.113281 76.371094 -0.722656 95.179688 0.710938 104.160156 C 6.625 141.203125 35.234375 171.0625 72.300781 178.886719 C 79.527344 180.414062 100.839844 180.359375 108.121094 178.796875 Z M 108.121094 178.796875 "/>
</g>
<mask id="mask-1">
<g filter="url(#filter-remove-color)">
<rect x="-18" y="-18" width="216.000002" height="216.000002" fill="rgb(0%, 0%, 0%)" fill-opacity="0.99"/>
</g>
</mask>
<clipPath id="clip-1">
<rect x="0" y="0" width="180" height="180"/>
</clipPath>
<g id="source-8" clip-path="url(#clip-1)">
<path fill-rule="evenodd" fill="rgb(100%, 100%, 100%)" fill-opacity="1" d="M 80.011719 55.492188 C 44.742188 37.476562 18.101562 67.644531 19.605469 90.324219 C 19.757812 118.9375 50.566406 140.152344 80.011719 124.652344 L 80.011719 160.585938 L 98.898438 160.515625 L 99.199219 124.507812 C 136.324219 142.015625 160.890625 112.484375 160.449219 90.332031 C 159.992188 61.761719 131.390625 39.523438 99.199219 55.492188 L 99.199219 19.414062 L 80.554688 19.414062 Z M 60.054688 69.066406 C 90.261719 72.445312 84.703125 110.925781 59.941406 111.507812 C 30.765625 110.789062 30.839844 69.0625 60.054688 69.066406 Z M 121.976562 68.464844 C 150.074219 71.625 146.820312 110.730469 120.640625 111.511719 C 88.511719 107.300781 95.0625 67.695312 121.976562 68.464844 Z M 121.976562 68.464844 "/>
</g>
</defs>
<g mask="url(#mask-0)">
<use xlink:href="#source-5"/>
</g>
<g mask="url(#mask-1)">
<use xlink:href="#source-8"/>
</g>
</svg>
